<svg t="1667272726804" class="icon" viewBox="0 0 1024 1024" version="1.1"
  xmlns="http://www.w3.org/2000/svg" p-id="6127" width="512" height="512"
  xmlns:xlink="http://www.w3.org/1999/xlink">
  <path
    d="M482.133333 325.546667a42.666667 42.666667 0 0 0 8.96 5.973333s2.986667 2.56 4.693334 2.986667a40.106667 40.106667 0 0 0 32.426666 0s2.986667 0 4.693334-2.986667a42.666667 42.666667 0 0 0 8.96-5.973333l128-124.16a42.666667 42.666667 0 1 0-59.733334-61.44L512 235.52 413.866667 139.946667a42.666667 42.666667 0 0 0-59.733334 61.44zM541.866667 698.453333a27.733333 27.733333 0 0 0-6.4-4.266666 34.986667 34.986667 0 0 0-7.253334-4.693334 33.28 33.28 0 0 0-8.96 0 36.693333 36.693333 0 0 0-7.253333 0 39.68 39.68 0 0 0-9.386667 0h-6.4a32.426667 32.426667 0 0 0-8.106666 5.12 46.933333 46.933333 0 0 0-5.973334 3.84l-128 124.16a42.666667 42.666667 0 0 0 59.733334 61.44l98.133333-95.573333 98.133333 95.573333a42.666667 42.666667 0 0 0 59.733334-61.44z"
    fill="#71BDFB" p-id="6128"></path>
  <path
    d="M512 426.666667a42.666667 42.666667 0 0 1-42.666667-42.666667V128a42.666667 42.666667 0 0 1 85.333334 0v256a42.666667 42.666667 0 0 1-42.666667 42.666667zM512 938.666667a42.666667 42.666667 0 0 1-42.666667-42.666667v-256a42.666667 42.666667 0 0 1 85.333334 0v256a42.666667 42.666667 0 0 1-42.666667 42.666667z"
    fill="#CBE5FB" p-id="6129"></path>
  <path
    d="M336.213333 503.893333a22.613333 22.613333 0 0 0 0-7.68 21.333333 21.333333 0 0 0-4.693333-7.253333 23.04 23.04 0 0 0-4.266667-6.826667l-124.16-128a42.666667 42.666667 0 1 0-63.146666 59.733334L235.52 512l-95.573333 98.133333a42.666667 42.666667 0 0 0 61.44 59.733334l124.16-128a23.04 23.04 0 0 0 4.266666-6.826667 21.333333 21.333333 0 0 0 4.693334-7.253333 22.613333 22.613333 0 0 0 0-7.68 53.333333 53.333333 0 0 0 0-8.106667 53.333333 53.333333 0 0 0 1.706666-8.106667zM788.48 512l95.573333-98.133333a42.666667 42.666667 0 0 0-61.44-59.733334l-124.16 128a23.04 23.04 0 0 0-4.266666 6.826667 21.333333 21.333333 0 0 0-4.693334 7.253333 22.613333 22.613333 0 0 0 0 7.68 53.333333 53.333333 0 0 0 0 8.106667 53.333333 53.333333 0 0 0 0 8.106667 22.613333 22.613333 0 0 0 0 7.68 21.333333 21.333333 0 0 0 4.693334 7.253333 23.04 23.04 0 0 0 4.266666 6.826667l124.16 128a42.666667 42.666667 0 0 0 61.44-59.733334z"
    fill="#71BDFB" p-id="6130"></path>
  <path
    d="M384 554.666667H128a42.666667 42.666667 0 0 1 0-85.333334h256a42.666667 42.666667 0 0 1 0 85.333334zM896 554.666667h-256a42.666667 42.666667 0 0 1 0-85.333334h256a42.666667 42.666667 0 0 1 0 85.333334z"
    fill="#CBE5FB" p-id="6131"></path>
  <path
    d="M512 682.666667a42.666667 42.666667 0 0 1-30.293333-12.373334l-128-128a42.666667 42.666667 0 0 1 0-60.586666l128-128a42.666667 42.666667 0 0 1 60.586666 0l128 128a42.666667 42.666667 0 0 1 0 60.586666l-128 128A42.666667 42.666667 0 0 1 512 682.666667z m-67.84-170.666667L512 579.84 579.84 512 512 444.16z"
    fill="#71BDFB" p-id="6132"></path>
</svg>